<svg width="25" height="25" viewBox="0 0 25 25" fill="none" xmlns="http://www.w3.org/2000/svg">
<path fill-rule="evenodd" clip-rule="evenodd" d="M21.2416 1.60422C21.1694 0.98255 20.641 0.5 20 0.5C19.3096 0.5 18.75 1.05964 18.75 1.75V4.25H16.25L16.1042 4.25841C15.4826 4.33062 15 4.85896 15 5.5C15 6.19036 15.5596 6.75 16.25 6.75H18.75V9.25L18.7584 9.39578C18.8306 10.0174 19.359 10.5 20 10.5C20.6904 10.5 21.25 9.94036 21.25 9.25V6.75H23.75L23.8958 6.74159C24.5175 6.66938 25 6.14104 25 5.5C25 4.80964 24.4404 4.25 23.75 4.25H21.25V1.75L21.2416 1.60422ZM13.75 3C13.75 2.30964 13.1904 1.75 12.5 1.75H10L9.81342 1.75686C8.51985 1.85229 7.5 2.93205 7.5 4.25C7.5 4.94036 6.94036 5.5 6.25 5.5H3.75C1.67893 5.5 0 7.17893 0 9.25V20.5L0.00636587 20.7203C0.120424 22.6889 1.7529 24.25 3.75 24.25H21.25L21.4703 24.2436C23.4389 24.1296 25 22.4971 25 20.5V11.75L24.9916 11.6042C24.9194 10.9826 24.391 10.5 23.75 10.5C23.0596 10.5 22.5 11.0596 22.5 11.75V20.5L22.4916 20.6458C22.4194 21.2675 21.891 21.75 21.25 21.75H3.75L3.60422 21.7416C2.98255 21.6694 2.5 21.141 2.5 20.5V9.25L2.50841 9.10422C2.58062 8.48255 3.10896 8 3.75 8H6.25L6.47034 7.99363C8.36594 7.8838 9.8838 6.36594 9.99363 4.47034L10 4.25H12.5L12.6458 4.24159C13.2674 4.16938 13.75 3.64104 13.75 3ZM12.5 9.25C9.73858 9.25 7.5 11.4886 7.5 14.25C7.5 17.0114 9.73858 19.25 12.5 19.25C15.2614 19.25 17.5 17.0114 17.5 14.25C17.5 11.4886 15.2614 9.25 12.5 9.25ZM12.5 11.75C13.8807 11.75 15 12.8693 15 14.25C15 15.6307 13.8807 16.75 12.5 16.75C11.1193 16.75 10 15.6307 10 14.25C10 12.8693 11.1193 11.75 12.5 11.75Z" fill="#6B7280"/>
</svg>
