<svg width="31" height="30" viewBox="0 0 31 30" fill="none" xmlns="http://www.w3.org/2000/svg">
<g id="Media / Camera Plus">
<path id="Style" fill-rule="evenodd" clip-rule="evenodd" d="M24.2416 3.60422C24.1694 2.98255 23.641 2.5 23 2.5C22.3096 2.5 21.75 3.05964 21.75 3.75V6.25H19.25L19.1042 6.25841C18.4826 6.33062 18 6.85896 18 7.5C18 8.19036 18.5596 8.75 19.25 8.75H21.75V11.25L21.7584 11.3958C21.8306 12.0174 22.359 12.5 23 12.5C23.6904 12.5 24.25 11.9404 24.25 11.25V8.75H26.75L26.8958 8.74159C27.5175 8.66938 28 8.14104 28 7.5C28 6.80964 27.4404 6.25 26.75 6.25H24.25V3.75L24.2416 3.60422ZM16.75 5C16.75 4.30964 16.1904 3.75 15.5 3.75H13L12.8134 3.75686C11.5198 3.85229 10.5 4.93205 10.5 6.25C10.5 6.94036 9.94036 7.5 9.25 7.5H6.75C4.67893 7.5 3 9.17893 3 11.25V22.5L3.00637 22.7203C3.12042 24.6889 4.7529 26.25 6.75 26.25H24.25L24.4703 26.2436C26.4389 26.1296 28 24.4971 28 22.5V13.75L27.9916 13.6042C27.9194 12.9826 27.391 12.5 26.75 12.5C26.0596 12.5 25.5 13.0596 25.5 13.75V22.5L25.4916 22.6458C25.4194 23.2675 24.891 23.75 24.25 23.75H6.75L6.60422 23.7416C5.98255 23.6694 5.5 23.141 5.5 22.5V11.25L5.50841 11.1042C5.58062 10.4826 6.10896 10 6.75 10H9.25L9.47034 9.99363C11.3659 9.8838 12.8838 8.36594 12.9936 6.47034L13 6.25H15.5L15.6458 6.24159C16.2674 6.16938 16.75 5.64104 16.75 5ZM15.5 11.25C12.7386 11.25 10.5 13.4886 10.5 16.25C10.5 19.0114 12.7386 21.25 15.5 21.25C18.2614 21.25 20.5 19.0114 20.5 16.25C20.5 13.4886 18.2614 11.25 15.5 11.25ZM15.5 13.75C16.8807 13.75 18 14.8693 18 16.25C18 17.6307 16.8807 18.75 15.5 18.75C14.1193 18.75 13 17.6307 13 16.25C13 14.8693 14.1193 13.75 15.5 13.75Z" fill="#6B7280"/>
</g>
</svg>
