<svg width="22" height="20" viewBox="0 0 22 20" fill="none" xmlns="http://www.w3.org/2000/svg">
<g id="Group">
<path id="Vector" d="M7 16.72C5.339 18.134 3.82 19 1 19C2 18 3.27 16.65 3.801 14.553C2.067 13.114 1 11.157 1 9C1 4.582 5.477 1 11 1C16.1 1 20.308 4.054 20.923 8" stroke="#9CA3AF" stroke-width="2" stroke-linecap="round" stroke-linejoin="round"/>
<path id="Vector_2" d="M15 17.889C11.686 17.889 9 15.899 9 13.444C9 10.99 11.686 9 15 9C18.314 9 21 10.99 21 13.444C21 14.643 20.36 15.73 19.32 16.529C19.637 17.694 20.4 18.444 21 19C19.2 19 18.284 18.456 17.208 17.578C16.524 17.778 15.78 17.889 15 17.889Z" stroke="#9CA3AF" stroke-width="2" stroke-linecap="round" stroke-linejoin="round"/>
</g>
</svg>
