<svg width="25" height="24" viewBox="0 0 25 24" fill="none" xmlns="http://www.w3.org/2000/svg">
<g id="Date + Time / Calendar 02">
<path id="Shape" d="M4.5 9H20.5V11H4.5V9Z" fill="#F98898"/>
<path id="Shape_2" fill-rule="evenodd" clip-rule="evenodd" d="M9.2587 5H15.7413C16.5463 4.99999 17.2106 4.99998 17.7518 5.04419C18.3139 5.09012 18.8306 5.18868 19.316 5.43597C20.0686 5.81947 20.6805 6.43139 21.064 7.18404C21.3113 7.66937 21.4099 8.18608 21.4558 8.74817C21.5 9.28936 21.5 9.95372 21.5 10.7587V15.2413C21.5 16.0463 21.5 16.7106 21.4558 17.2518C21.4099 17.8139 21.3113 18.3306 21.064 18.816C20.6805 19.5686 20.0686 20.1805 19.316 20.564C18.8306 20.8113 18.3139 20.9099 17.7518 20.9558C17.2106 21 16.5463 21 15.7413 21H9.25873C8.45374 21 7.78938 21 7.24817 20.9558C6.68608 20.9099 6.16937 20.8113 5.68404 20.564C4.93139 20.1805 4.31947 19.5686 3.93597 18.816C3.68868 18.3306 3.59012 17.8139 3.54419 17.2518C3.49998 16.7106 3.49999 16.0463 3.5 15.2413V10.7587C3.49999 9.95373 3.49998 9.28937 3.54419 8.74818C3.59012 8.18608 3.68868 7.66937 3.93597 7.18404C4.31947 6.43139 4.93139 5.81947 5.68404 5.43597C6.16937 5.18868 6.68608 5.09012 7.24817 5.04419C7.78937 4.99998 8.45373 4.99999 9.2587 5ZM7.41104 7.03755C6.97262 7.07337 6.74842 7.1383 6.59202 7.21799C6.2157 7.40973 5.90973 7.7157 5.71799 8.09202C5.6383 8.24842 5.57337 8.47262 5.53755 8.91104C5.50078 9.36113 5.5 9.94342 5.5 10.8V15.2C5.5 16.0566 5.50078 16.6389 5.53755 17.089C5.57337 17.5274 5.6383 17.7516 5.71799 17.908C5.90973 18.2843 6.2157 18.5903 6.59202 18.782C6.74842 18.8617 6.97262 18.9266 7.41104 18.9624C7.86113 18.9992 8.44342 19 9.3 19H15.7C16.5566 19 17.1389 18.9992 17.589 18.9624C18.0274 18.9266 18.2516 18.8617 18.408 18.782C18.7843 18.5903 19.0903 18.2843 19.282 17.908C19.3617 17.7516 19.4266 17.5274 19.4624 17.089C19.4992 16.6389 19.5 16.0566 19.5 15.2V10.8C19.5 9.94342 19.4992 9.36113 19.4624 8.91104C19.4266 8.47262 19.3617 8.24842 19.282 8.09202C19.0903 7.7157 18.7843 7.40973 18.408 7.21799C18.2516 7.1383 18.0274 7.07337 17.589 7.03755C17.1389 7.00078 16.5566 7 15.7 7H9.3C8.44342 7 7.86113 7.00078 7.41104 7.03755Z" fill="#F98898"/>
<g id="Shape_3">
<path d="M9.5 4C9.5 3.44772 9.05228 3 8.5 3C7.94772 3 7.5 3.44772 7.5 4V6C7.5 6.55228 7.94772 7 8.5 7C9.05228 7 9.5 6.55228 9.5 6V4Z" fill="#F98898"/>
<path d="M17.5 4C17.5 3.44772 17.0523 3 16.5 3C15.9477 3 15.5 3.44772 15.5 4V6C15.5 6.55228 15.9477 7 16.5 7C17.0523 7 17.5 6.55228 17.5 6V4Z" fill="#F98898"/>
</g>
</g>
</svg>
