<svg width="20" height="20" viewBox="0 0 20 20" fill="none" xmlns="http://www.w3.org/2000/svg">
<g id="System / Checks">
<path id="Style" fill-rule="evenodd" clip-rule="evenodd" d="M14.7556 5.24408C15.056 5.54448 15.0791 6.01717 14.8249 6.34408L14.7556 6.42259L10.5889 10.5893C10.2635 10.9147 9.73586 10.9147 9.41042 10.5893C9.11002 10.2889 9.08691 9.81616 9.3411 9.48925L9.41042 9.41074L13.5771 5.24408C13.9025 4.91864 14.4302 4.91864 14.7556 5.24408ZM2.17709 9.34142L2.2556 9.41074L6.42226 13.5774C6.7477 13.9028 6.7477 14.4305 6.42226 14.7559C6.12186 15.0563 5.64917 15.0794 5.32226 14.8252L5.24375 14.7559L1.07709 10.5893C0.751649 10.2638 0.751649 9.73618 1.07709 9.41074C1.35246 9.13538 1.7726 9.09301 2.09251 9.28365L2.17709 9.34142ZM18.9223 5.24408C18.5968 4.91864 18.0692 4.91864 17.7438 5.24408L9.99967 12.9875L6.42226 9.41074L6.34376 9.34142C6.01685 9.08723 5.54416 9.11034 5.24375 9.41074C4.91831 9.73618 4.91831 10.2638 5.24375 10.5893L9.41042 14.7559L9.48892 14.8252C9.81583 15.0794 10.2885 15.0563 10.5889 14.7559L18.9223 6.42259L18.9916 6.34408C19.2458 6.01717 19.2227 5.54448 18.9223 5.24408Z" fill="#9CA3AF"/>
</g>
</svg>
