<svg width="12" height="12" viewBox="0 0 12 12" fill="none" xmlns="http://www.w3.org/2000/svg">
<g id="mdi:clock">
<path id="Vector" d="M6 1C5.34339 1 4.69321 1.12933 4.08658 1.3806C3.47995 1.63188 2.92876 2.00017 2.46447 2.46447C1.52678 3.40215 1 4.67392 1 6C1 7.32608 1.52678 8.59785 2.46447 9.53553C2.92876 9.99983 3.47995 10.3681 4.08658 10.6194C4.69321 10.8707 5.34339 11 6 11C7.32608 11 8.59785 10.4732 9.53553 9.53553C10.4732 8.59785 11 7.32608 11 6C11 5.34339 10.8707 4.69321 10.6194 4.08658C10.3681 3.47995 9.99983 2.92876 9.53553 2.46447C9.07124 2.00017 8.52005 1.63188 7.91342 1.3806C7.30679 1.12933 6.65661 1 6 1ZM8.1 8.1L5.5 6.5V3.5H6.25V6.1L8.5 7.45L8.1 8.1Z" fill="#7E4CE0"/>
</g>
</svg>
