<svg width="24" height="24" viewBox="0 0 24 24" fill="none" xmlns="http://www.w3.org/2000/svg">
<g id="octicon:home-16">
<path id="Vector" d="M10.359 0.995903C10.8244 0.623075 11.4029 0.419922 11.9992 0.419922C12.5956 0.419922 13.1741 0.623075 13.6395 0.995903L21.5145 7.2959C22.137 7.7939 22.5 8.5484 22.5 9.3464V19.8749C22.5 20.5711 22.2234 21.2388 21.7312 21.7311C21.2389 22.2233 20.5712 22.4999 19.875 22.4999H14.625C14.3266 22.4999 14.0405 22.3814 13.8295 22.1704C13.6185 21.9594 13.5 21.6733 13.5 21.3749V13.4999H10.5V21.3749C10.5 21.6733 10.3815 21.9594 10.1705 22.1704C9.95952 22.3814 9.67337 22.4999 9.375 22.4999H4.125C3.42881 22.4999 2.76113 22.2233 2.26884 21.7311C1.77656 21.2388 1.5 20.5711 1.5 19.8749V9.3449C1.5 8.5484 1.863 7.7939 2.4855 7.2959L10.359 0.995903ZM12.234 2.7524C12.1676 2.69934 12.085 2.67044 12 2.67044C11.915 2.67044 11.8324 2.69934 11.766 2.7524L3.891 9.0524C3.84688 9.08763 3.81129 9.13237 3.78687 9.18328C3.76246 9.23418 3.74985 9.28995 3.75 9.3464V19.8749C3.75 20.0819 3.918 20.2499 4.125 20.2499H8.25V12.3749C8.25 12.0765 8.36853 11.7904 8.5795 11.5794C8.79048 11.3684 9.07663 11.2499 9.375 11.2499H14.625C14.9234 11.2499 15.2095 11.3684 15.4205 11.5794C15.6315 11.7904 15.75 12.0765 15.75 12.3749V20.2499H19.875C19.9745 20.2499 20.0698 20.2104 20.1402 20.1401C20.2105 20.0697 20.25 19.9744 20.25 19.8749V9.3449C20.2499 9.2887 20.2372 9.23323 20.2128 9.1826C20.1884 9.13197 20.1529 9.08748 20.109 9.0524L12.234 2.7524Z" fill="#3DAEF5"/>
</g>
</svg>
