<svg width="24" height="24" viewBox="0 0 24 24" fill="none" xmlns="http://www.w3.org/2000/svg">
<g id="Various / Language">
<path id="Style" fill-rule="evenodd" clip-rule="evenodd" d="M10.9933 4.88338C10.9355 4.38604 10.5128 4 10 4C9.44772 4 9 4.44772 9 5V6H5L4.88338 6.00673C4.38604 6.06449 4 6.48716 4 7C4 7.55228 4.44772 8 5 8L8.95808 8.00115C8.81393 9.70676 8.30844 11.1949 7.60239 12.2619C7.21424 11.8653 6.9993 11.4331 7 11.0016L6.99346 10.885C6.93649 10.3875 6.51444 10.0008 6.0016 10C5.44932 9.99911 5.00089 10.4461 5 10.9984C4.99839 12.0026 5.43224 12.9104 6.182 13.6698C5.8029 13.8846 5.40465 14 5 14L4.88338 14.0067C4.38604 14.0645 4 14.4872 4 15C4 15.5523 4.44772 16 5 16C6.07523 16 7.0648 15.599 7.91679 14.8977C8.88131 15.3834 10.0322 15.7272 11.2871 15.8924L10.0864 18.5939L10.0452 18.7032C9.89602 19.1811 10.1255 19.7055 10.5941 19.9138L10.7034 19.955C11.1813 20.1042 11.7058 19.8748 11.9141 19.4061L12.5382 18H17.4612L18.0864 19.4061L18.1399 19.51C18.3947 19.941 18.9378 20.1221 19.4064 19.9138C19.9111 19.6895 20.1384 19.0985 19.9141 18.5939L15.9141 9.59386L15.8557 9.48103L15.7828 9.37481C15.3393 8.81041 14.4022 8.88343 14.0864 9.59386L12.1411 13.971C11.064 13.8888 10.0935 13.6567 9.29345 13.3292L9.35168 13.2407C10.2391 11.8411 10.8186 10.0124 10.964 8.00107L12 8L12.1166 7.99327C12.614 7.93551 13 7.51284 13 7C13 6.44772 12.5523 6 12 6H11V5L10.9933 4.88338ZM15.0007 12.4609L13.4277 15.9999H16.5737L15.0007 12.4609Z" fill="#6B7280"/>
</g>
</svg>
