<svg width="18" height="18" viewBox="0 0 18 18" fill="none" xmlns="http://www.w3.org/2000/svg">
<g id="People / User Plus">
<path id="Style" fill-rule="evenodd" clip-rule="evenodd" d="M3 5.25C3 3.17893 4.67893 1.5 6.75 1.5C8.82107 1.5 10.5 3.17893 10.5 5.25C10.5 7.32107 8.82107 9 6.75 9C4.67893 9 3 7.32107 3 5.25ZM9 5.25C9 4.00736 7.99264 3 6.75 3C5.50736 3 4.5 4.00736 4.5 5.25C4.5 6.49264 5.50736 7.5 6.75 7.5C7.99264 7.5 9 6.49264 9 5.25ZM8.25 10.5C10.2666 10.5 11.9114 12.0917 11.9965 14.0873L12 14.25V15.75C12 16.1642 11.6642 16.5 11.25 16.5C10.8654 16.5 10.5484 16.2105 10.505 15.8375L10.5 15.75V14.25C10.5 13.0517 9.56331 12.0723 8.3822 12.0038L8.25 12H5.25C4.05174 12 3.07225 12.9367 3.00382 14.1178L3 14.25V15.75C3 16.1642 2.66421 16.5 2.25 16.5C1.86537 16.5 1.54837 16.2105 1.50505 15.8375L1.5 15.75V14.25C1.5 12.2334 3.09173 10.5886 5.08733 10.5035L5.25 10.5H8.25ZM14.995 5.91253C14.9516 5.53953 14.6346 5.25 14.25 5.25C13.8358 5.25 13.5 5.58579 13.5 6V7.5H12L11.9125 7.50505C11.5395 7.54837 11.25 7.86537 11.25 8.25C11.25 8.66421 11.5858 9 12 9H13.5V10.5L13.505 10.5875C13.5484 10.9605 13.8654 11.25 14.25 11.25C14.6642 11.25 15 10.9142 15 10.5V9H16.5L16.5875 8.99495C16.9605 8.95163 17.25 8.63463 17.25 8.25C17.25 7.83579 16.9142 7.5 16.5 7.5H15V6L14.995 5.91253Z" fill="#3DAEF5"/>
</g>
</svg>
