<svg width="25" height="24" viewBox="0 0 25 24" fill="none" xmlns="http://www.w3.org/2000/svg">
<g id="Devices / Phone">
<path id="Style" fill-rule="evenodd" clip-rule="evenodd" d="M9.5 3C9.86801 3 10.2027 3.20165 10.3766 3.51875L10.4285 3.62861L12.4285 8.62861C12.5956 9.04635 12.4621 9.51864 12.1145 9.78897L12.0145 9.85749L10.341 10.861L10.4037 10.9637C11.2005 12.2288 12.2712 13.2995 13.5363 14.0963L13.638 14.158L14.6425 12.4855C14.874 12.0997 15.3308 11.9202 15.7563 12.0333L15.8714 12.0715L20.8714 14.0715C21.2131 14.2082 21.4489 14.5197 21.4926 14.8787L21.5 15V19C21.5 20.6569 20.1569 22 18.4393 21.9982C9.86247 21.4769 3.02306 14.6375 2.5 6C2.5 4.40232 3.74892 3.09634 5.32373 3.00509L5.5 3H9.5ZM8.823 5H5.5C4.94772 5 4.5 5.44772 4.49816 5.93934C4.95806 13.5072 10.9928 19.5419 18.5 20C19.0128 20 19.4355 19.614 19.4933 19.1166L19.5 19V15.677L15.919 14.244L14.8575 16.0145C14.6103 16.4264 14.1096 16.5998 13.667 16.443L13.5577 16.3969C11.1887 15.2285 9.27146 13.3113 8.10314 10.9423C7.89065 10.5115 8.016 9.99665 8.38754 9.7094L8.4855 9.64251L10.255 8.58L8.823 5Z" fill="#3DAEF5"/>
</g>
</svg>
