<svg width="20" height="20" viewBox="0 0 20 20" fill="none" xmlns="http://www.w3.org/2000/svg">
<g id="Document / Report Analytics">
<path id="Style" fill-rule="evenodd" clip-rule="evenodd" d="M9.16634 1.66699H10.833C11.9215 1.66699 12.8476 2.36267 13.1908 3.33366H14.1663C15.4977 3.33366 16.5861 4.37443 16.6621 5.68676L16.6663 5.83366V15.8337C16.6663 17.1651 15.6256 18.2534 14.3132 18.3294L14.1663 18.3337H5.83301C4.50161 18.3337 3.41329 17.2929 3.33725 15.9806L3.33301 15.8337V5.83366C3.33301 4.50226 4.37377 3.41394 5.68611 3.3379L5.83301 3.33366H6.8086C7.15179 2.36267 8.07783 1.66699 9.16634 1.66699ZM10.833 3.33366C11.2932 3.33366 11.6663 3.70675 11.6663 4.16699C11.6663 4.62723 11.2932 5.00033 10.833 5.00033H9.16634C8.7061 5.00033 8.33301 4.62723 8.33301 4.16699C8.33301 3.70675 8.7061 3.33366 9.16634 3.33366H10.833ZM9.16634 6.66699C8.07783 6.66699 7.15179 5.97132 6.8086 5.00033H5.83301C5.40564 5.00033 5.05342 5.32203 5.00528 5.73647L4.99967 5.83366V15.8337C4.99967 16.261 5.32137 16.6132 5.73582 16.6614L5.83301 16.667H14.1663C14.5937 16.667 14.9459 16.3453 14.9941 15.9308L14.9997 15.8337V5.83366C14.9997 5.4063 14.678 5.05407 14.2635 5.00593L14.1663 5.00033H13.1908C12.8476 5.97132 11.9215 6.66699 10.833 6.66699H9.16634ZM8.3274 9.90314C8.27926 9.48869 7.92704 9.16699 7.49967 9.16699C7.03944 9.16699 6.66634 9.54009 6.66634 10.0003V14.167L6.67195 14.2642C6.72009 14.6786 7.07231 15.0003 7.49967 15.0003C7.95991 15.0003 8.33301 14.6272 8.33301 14.167V10.0003L8.3274 9.90314ZM9.99967 12.5003C10.427 12.5003 10.7793 12.822 10.8274 13.2365L10.833 13.3337V14.167C10.833 14.6272 10.4599 15.0003 9.99967 15.0003C9.57231 15.0003 9.22009 14.6786 9.17195 14.2642L9.16634 14.167V13.3337C9.16634 12.8734 9.53944 12.5003 9.99967 12.5003ZM13.3274 11.5698C13.2793 11.1554 12.927 10.8337 12.4997 10.8337C12.0394 10.8337 11.6663 11.2068 11.6663 11.667V14.167L11.6719 14.2642C11.7201 14.6786 12.0723 15.0003 12.4997 15.0003C12.9599 15.0003 13.333 14.6272 13.333 14.167V11.667L13.3274 11.5698Z" fill="#F7D55C"/>
</g>
</svg>
