<svg width="18" height="18" viewBox="0 0 18 18" fill="none" xmlns="http://www.w3.org/2000/svg">
<g id="Line Lightmode/Time">
<path id="Vector" d="M10.0001 5.66675C10.0001 5.11446 9.55237 4.66675 9.00008 4.66675C8.4478 4.66675 8.00008 5.11446 8.00008 5.66675H10.0001ZM9.00008 9.66675H8.00008C8.00008 9.93196 8.10544 10.1863 8.29297 10.3739L9.00008 9.66675ZM9.95964 12.0405C10.3502 12.431 10.9833 12.431 11.3739 12.0405C11.7644 11.65 11.7644 11.0168 11.3739 10.6263L9.95964 12.0405ZM15.3334 9.00008C15.3334 12.4979 12.4979 15.3334 9.00008 15.3334V17.3334C13.6025 17.3334 17.3334 13.6025 17.3334 9.00008H15.3334ZM9.00008 15.3334C5.50228 15.3334 2.66675 12.4979 2.66675 9.00008H0.666748C0.666748 13.6025 4.39771 17.3334 9.00008 17.3334V15.3334ZM2.66675 9.00008C2.66675 5.50228 5.50228 2.66675 9.00008 2.66675V0.666748C4.39771 0.666748 0.666748 4.39771 0.666748 9.00008H2.66675ZM9.00008 2.66675C12.4979 2.66675 15.3334 5.50228 15.3334 9.00008H17.3334C17.3334 4.39771 13.6025 0.666748 9.00008 0.666748V2.66675ZM8.00008 5.66675V9.66675H10.0001V5.66675H8.00008ZM8.29297 10.3739L9.95964 12.0405L11.3739 10.6263L9.70719 8.95964L8.29297 10.3739Z" fill="#25894D"/>
</g>
</svg>
