<svg width="16" height="16" viewBox="0 0 16 16" fill="none" xmlns="http://www.w3.org/2000/svg">
<g id="People / Users">
<path id="Style" fill-rule="evenodd" clip-rule="evenodd" d="M5.99992 1.3335C4.15897 1.3335 2.66659 2.82588 2.66659 4.66683C2.66659 6.50778 4.15897 8.00016 5.99992 8.00016C7.84087 8.00016 9.33325 6.50778 9.33325 4.66683C9.33325 2.82588 7.84087 1.3335 5.99992 1.3335ZM5.99992 2.66683C7.10449 2.66683 7.99992 3.56226 7.99992 4.66683C7.99992 5.7714 7.10449 6.66683 5.99992 6.66683C4.89535 6.66683 3.99992 5.7714 3.99992 4.66683C3.99992 3.56226 4.89535 2.66683 5.99992 2.66683ZM10.6635 12.5222C10.5878 10.7484 9.12576 9.3335 7.33325 9.3335H4.66659L4.52199 9.33658C2.74812 9.41228 1.33325 10.8743 1.33325 12.6668V14.0002L1.33774 14.0779C1.37625 14.4095 1.65803 14.6668 1.99992 14.6668C2.36811 14.6668 2.66659 14.3684 2.66659 14.0002V12.6668L2.66998 12.5493C2.73081 11.4994 3.60146 10.6668 4.66659 10.6668H7.33325L7.45077 10.6702C8.50064 10.7311 9.33325 11.6017 9.33325 12.6668V14.0002L9.33774 14.0779C9.37625 14.4095 9.65803 14.6668 9.99992 14.6668C10.3681 14.6668 10.6666 14.3684 10.6666 14.0002V12.6668L10.6635 12.5222ZM10.0208 1.92147C10.1121 1.56479 10.4753 1.34967 10.8319 1.441C12.3069 1.81864 13.3385 3.14766 13.3385 4.67016C13.3385 6.19267 12.3069 7.52169 10.8319 7.89933C10.4753 7.99065 10.1121 7.77554 10.0208 7.41886C9.92943 7.06217 10.1445 6.69899 10.5012 6.60766C11.3862 6.38108 12.0051 5.58367 12.0051 4.67016C12.0051 3.75666 11.3862 2.95925 10.5012 2.73266C10.1445 2.64134 9.92943 2.27815 10.0208 1.92147ZM12.1666 9.45466C11.8101 9.36262 11.4465 9.57701 11.3544 9.93351C11.2624 10.29 11.4768 10.6536 11.8333 10.7457C12.7122 10.9726 13.328 11.7629 13.3333 12.6707L13.3333 14.0002L13.3377 14.0779C13.3762 14.4095 13.658 14.6668 13.9999 14.6668C14.3681 14.6668 14.6666 14.3684 14.6666 14.0002V12.6668L14.6623 12.5159C14.589 11.0634 13.5826 9.82025 12.1666 9.45466Z" fill="#3DAEF5"/>
</g>
</svg>
