<svg width="14" height="20" viewBox="0 0 14 20" fill="none" xmlns="http://www.w3.org/2000/svg">
<path id="Style" fill-rule="evenodd" clip-rule="evenodd" d="M7 0C4.23858 0 2 2.23858 2 5C2 7.76142 4.23858 10 7 10C9.76142 10 12 7.76142 12 5C12 2.23858 9.76142 0 7 0ZM7 2C8.65685 2 10 3.34315 10 5C10 6.65685 8.65685 8 7 8C5.34315 8 4 6.65685 4 5C4 3.34315 5.34315 2 7 2ZM13.9954 16.7831C13.8818 14.1223 11.6888 12 9 12H5L4.78311 12.0046C2.12231 12.1182 0 14.3112 0 17V19L0.00672773 19.1166C0.0644928 19.614 0.487164 20 1 20C1.55228 20 2 19.5523 2 19V17L2.00509 16.8237C2.09634 15.2489 3.40232 14 5 14H9L9.17627 14.0051C10.7511 14.0963 12 15.4023 12 17V19L12.0067 19.1166C12.0645 19.614 12.4872 20 13 20C13.5523 20 14 19.5523 14 19V17L13.9954 16.7831Z" fill="#6B7280"/>
</svg>
