<svg width="25" height="24" viewBox="0 0 25 24" fill="none" xmlns="http://www.w3.org/2000/svg">
<g id="Media / Video">
<path id="Style" fill-rule="evenodd" clip-rule="evenodd" d="M13.5 5H5.5C3.84315 5 2.5 6.34315 2.5 8V16C2.5 17.6569 3.84315 19 5.5 19H13.5C15.1569 19 16.5 17.6569 16.5 16V15.6179L19.6059 17.1705C20.2258 17.4803 20.9618 17.4471 21.5512 17.0829C22.1407 16.7187 22.4996 16.0754 22.5 15.3825V8.618C22.4996 7.92459 22.1407 7.28126 21.5512 6.91708C20.9618 6.5529 20.2258 6.51975 19.606 6.82947L16.5 8.38212V8C16.5 6.34315 15.1569 5 13.5 5ZM16.5 10.618V13.381L20.5 15.3815V8.61853L16.5 10.618ZM14.5 10V8C14.5 7.44772 14.0523 7 13.5 7H5.5C4.94772 7 4.5 7.44772 4.5 8V16C4.5 16.5523 4.94772 17 5.5 17H13.5C14.0523 17 14.5 16.5523 14.5 16V14V10Z" fill="#F7D55C"/>
</g>
</svg>
